<svg width="48" height="48" viewBox="0 0 48 48" xmlns="http://www.w3.org/2000/svg">
    <title>
        Live Photo
    </title>
    <g fill-rule="evenodd">
        <path d="M24 36c6.627 0 12-5.373 12-12s-5.373-12-12-12-12 5.373-12 12 5.373 12 12 12zm0-2c5.523 0 10-4.477 10-10s-4.477-10-10-10-10 4.477-10 10 4.477 10 10 10z"/>
        <path d="M24 29a5 5 0 1 0 0-10 5 5 0 0 0 0 10zm0-3a2 2 0 1 0 0-4 2 2 0 0 0 0 4zM24 7a1.5 1.5 0 1 0 0-3 1.5 1.5 0 0 0 0 3zm4.788.63a1.5 1.5 0 1 0 0-3 1.5 1.5 0 0 0 0 3zM33.25 9.48a1.5 1.5 0 1 0 0-3 1.5 1.5 0 0 0 0 3zm3.831 2.94a1.5 1.5 0 1 0 0-3 1.5 1.5 0 0 0 0 3zm2.94 3.831a1.5 1.5 0 1 0 0-3 1.5 1.5 0 0 0 0 3zm1.849 4.462a1.5 1.5 0 1 0 0-3 1.5 1.5 0 0 0 0 3zm.63 4.788a1.5 1.5 0 1 0 0-3 1.5 1.5 0 0 0 0 3zm-.63 4.788a1.5 1.5 0 1 0 0-3 1.5 1.5 0 0 0 0 3zM40.02 34.75a1.5 1.5 0 1 0 0-3 1.5 1.5 0 0 0 0 3zm-2.94 3.831a1.5 1.5 0 1 0 0-3 1.5 1.5 0 0 0 0 3zm-3.831 2.94a1.5 1.5 0 1 0 0-3 1.5 1.5 0 0 0 0 3zm-4.462 1.849a1.5 1.5 0 1 0 0-3 1.5 1.5 0 0 0 0 3zM24 44a1.5 1.5 0 1 0 0-3 1.5 1.5 0 0 0 0 3zm-4.788-.63a1.5 1.5 0 1 0 0-3 1.5 1.5 0 0 0 0 3zM14.75 41.52a1.5 1.5 0 1 0 0-3 1.5 1.5 0 0 0 0 3zm-3.831-2.94a1.5 1.5 0 1 0 0-3 1.5 1.5 0 0 0 0 3zm-2.94-3.831a1.5 1.5 0 1 0 0-3 1.5 1.5 0 0 0 0 3zM6.13 30.288a1.5 1.5 0 1 0 0-3 1.5 1.5 0 0 0 0 3zM5.5 25.5a1.5 1.5 0 1 0 0-3 1.5 1.5 0 0 0 0 3zm.63-4.788a1.5 1.5 0 1 0 0-3 1.5 1.5 0 0 0 0 3zM7.98 16.25a1.5 1.5 0 1 0 0-3 1.5 1.5 0 0 0 0 3zm2.94-3.831a1.5 1.5 0 1 0 0-3 1.5 1.5 0 0 0 0 3zm3.831-2.94a1.5 1.5 0 1 0 0-3 1.5 1.5 0 0 0 0 3zm4.462-1.849a1.5 1.5 0 1 0 0-3 1.5 1.5 0 0 0 0 3z"/>
    </g>
</svg>

